{"title":"The Commitments 1991 DVD9rip English Klam","uid":5898688,"size":1789968153,"categoryP":"video","categoryS":"movies","magnet":"?xt=urn:btih:5ee44f0de95d7958f49f03cab5cc2315ebe4da43&amp;dn=The+Commitments+1991+DVD9rip+English+Klam&amp;tr=udp%3A%2F%2Ftracker.openbittorrent.com%3A80&amp;tr=udp%3A%2F%2Fopen.demonii.com%3A1337&amp;tr=udp%3A%2F%2Ftracker.coppersurfer.tk%3A6969&amp;tr=udp%3A%2F%2Fexodus.desync.com%3A6969","seeders":7,"leechers":0,"uploader":"Klambake","files":-1,"time":1287598981,"description":"With: Robert Arkins, Andrew Strong en Johnny Murphy\n\nJimmy Rabbitte, che vive di piccoli espedienti in un quartiere proletario di Dublino, si e' messo in testa di organizzare una band musicale per rinverdire i fasti del rythm&amp;blues e del soul. Grazie ad un annuncio sul giornale, Rabbitte comincia a selezionare giovani dal lavoro precario ma pieni di talento: Dean, Fay, Outspan, l'occhialuto Steven , Clifford, Deco, il ciccione senza buone maniere ma con una grande voce, Billy il batterista e Joey &quot;The lips&quot;, un bizzarro e maturo anziano suonatore di tromba che si vanta di aver suonato con famosi soul-singers. Aggrega anche Natalie, Imelda e Bernie, tre grintose ragazze, ottime coriste e molto sexy. Procuratisi a credito la strumentazione, cominciano le prove, massacranti, che impegnano tutti. Si inizia a suonare in pubblico, in capannoni e feste sociali: il gruppo sembra pervaso dal fuoco della musica e dell'ambizione. La band, pur se dilettantesca e provinciale... \n\nGeneral:\n\nComplete name                    : Klambake\\The Commitments\\The Commitments.avi\nFormat                           : AVI\nFormat/Info                      : Audio Video Interleave\nFile size                        : 1.67 GiB\nDuration                         : 1h 52mn\nOverall bit rate                 : 2 117 Kbps\n\nVideo:\n\nFormat                           : MPEG-4 Visual\nFormat profile                   : Simple@L3\nFormat settings, BVOP            : No\nFormat settings, QPel            : No\nFormat settings, GMC             : No warppoints\nFormat settings, Matrix          : Default (H.263)\nCodec ID                         : XVID\nCodec ID/Hint                    : XviD\nDuration                         : 1h 52mn\nBit rate                         : 1 658 Kbps\nWidth                            : 720 pixels\nHeight                           : 576 pixels\nDisplay aspect ratio             : 5:4\nFrame rate                       : 25.000 fps\nStandard                         : PAL\nColor space                      : YUV\nChroma subsampling               : 4:2:0\nBit depth                        : 8 bits\nScan type                        : Progressive\nBits/(Pixel*Frame)               : 0.160\nStream size                      : 1.30 GiB (78%)\nWriting library                  : XviD 1.1.2 (UTC 2006-11-01)\n\nAudio:\n\nFormat                           : AC-3\nFormat/Info                      : Audio Coding 3\nMode extension                   : CM (complete main)\nCodec ID                         : 2000\nDuration                         : 1h 52mn\nBit rate mode                    : Constant\nBit rate                         : 448 Kbps\nChannel(s)                       : 6 channels\nChannel positions                : Front: L C R, Side: L R, LFE\nSampling rate                    : 48.0 KHz\nBit depth                        : 16 bits\nStream size                      : 361 MiB (21%)\nAlignment                        : Aligned on interleaves\nInterleave, duration             : 32 ms (0.80 video frame)\nInterleave, preload duration     : 64 ms\n","torrent":{"xt":"urn:btih:5ee44f0de95d7958f49f03cab5cc2315ebe4da43","amp;dn":"The+Commitments+1991+DVD9rip+English+Klam","amp;tr":["udp%3A%2F%2Ftracker.openbittorrent.com%3A80","udp%3A%2F%2Fopen.demonii.com%3A1337","udp%3A%2F%2Ftracker.coppersurfer.tk%3A6969","udp%3A%2F%2Fexodus.desync.com%3A6969"],"infoHash":"5ee44f0de95d7958f49f03cab5cc2315ebe4da43","infoHashBuffer":{"type":"Buffer","data":[94,228,79,13,233,93,121,88,244,159,3,202,181,204,35,21,235,228,218,67]},"announce":[],"urlList":[]}}